<svg xmlns="http://www.w3.org/2000/svg" xmlns:xlink="http://www.w3.org/1999/xlink" width="64" height="64" id="power">
  <defs>
    <path id="a" d="M.06 64V.04H64V64z"></path>
  </defs>
  <g fill="none" fill-rule="evenodd">
    <mask id="b" fill="#fff">
      <use xlink:href="#a"></use>
    </mask>
    <path fill="#4C5665" d="M64 32c0 17.673-14.327 32-32 32C14.327 64 0 49.673 0 32 0 14.327 14.327 0 32 0c17.673 0 32 14.327 32 32" mask="url(#b)"></path>
    <path fill="#FFFFFE" d="M40.78 16.284a2 2 0 0 0-1.953 3.49A14.028 14.028 0 0 1 46 32c0 7.72-6.28 14-14 14s-14-6.28-14-14c0-4.947 2.654-9.578 6.926-12.085a1.999 1.999 0 0 0 .713-2.736 1.998 1.998 0 0 0-2.737-.713C17.411 19.687 14 25.64 14 32c0 9.925 8.075 18 18 18s18-8.075 18-18a18.029 18.029 0 0 0-9.22-15.716"></path>
    <path fill="#FFFFFE" d="M32 10a2 2 0 0 0-2 2v20a2 2 0 0 0 4 0V12a2 2 0 0 0-2-2"></path>
  </g>
</svg>
